<?xml version="1.0" encoding="utf-8" standalone="no"?>
<!DOCTYPE svg PUBLIC "-//W3C//DTD SVG 1.1//EN"
  "http://www.w3.org/Graphics/SVG/1.1/DTD/svg11.dtd">
<svg xmlns:xlink="http://www.w3.org/1999/xlink" width="700.56pt" height="360pt" viewBox="0 0 700.56 360" xmlns="http://www.w3.org/2000/svg" version="1.1">
 <metadata>
  <rdf:RDF xmlns:dc="http://purl.org/dc/elements/1.1/" xmlns:cc="http://creativecommons.org/ns#" xmlns:rdf="http://www.w3.org/1999/02/22-rdf-syntax-ns#">
   <cc:Work>
    <dc:type rdf:resource="http://purl.org/dc/dcmitype/StillImage"/>
    <dc:date>2022-02-08T10:21:07.044738</dc:date>
    <dc:format>image/svg+xml</dc:format>
    <dc:creator>
     <cc:Agent>
      <dc:title>Matplotlib v3.5.1, https://matplotlib.org/</dc:title>
     </cc:Agent>
    </dc:creator>
   </cc:Work>
  </rdf:RDF>
 </metadata>
 <defs>
  <style type="text/css">*{stroke-linejoin: round; stroke-linecap: butt}</style>
 </defs>
 <g id="figure_1">
  <g id="patch_1">
   <path d="M 0 360 
L 700.56 360 
L 700.56 0 
L 0 0 
z
" style="fill: #ffffff"/>
  </g>
  <g id="axes_1">
   <g id="patch_2">
    <path d="M 136.051347 318.04 
L 532.751703 318.04 
L 532.751703 10.8 
L 136.051347 10.8 
z
" style="fill: #ffffff"/>
   </g>
   <g id="patch_3">
    <path d="M 136.051347 14.213778 
L 178.69605 14.213778 
L 178.69605 18.115238 
L 136.051347 18.115238 
z
" clip-path="url(#p1678f5bee4)" style="fill: #3274a1"/>
   </g>
   <g id="patch_4">
    <path d="M 136.051347 48.351556 
L 142.810197 48.351556 
L 142.810197 52.253016 
L 136.051347 52.253016 
z
" clip-path="url(#p1678f5bee4)" style="fill: #3274a1"/>
   </g>
   <g id="patch_5">
    <path d="M 136.051347 82.489333 
L 214.587836 82.489333 
L 214.587836 86.390794 
L 136.051347 86.390794 
z
" clip-path="url(#p1678f5bee4)" style="fill: #3274a1"/>
   </g>
   <g id="patch_6">
    <path d="M 136.051347 116.627111 
L 139.770194 116.627111 
L 139.770194 120.528571 
L 136.051347 120.528571 
z
" clip-path="url(#p1678f5bee4)" style="fill: #3274a1"/>
   </g>
   <g id="patch_7">
    <path d="M 136.051347 150.764889 
L 139.738258 150.764889 
L 139.738258 154.666349 
L 136.051347 154.666349 
z
" clip-path="url(#p1678f5bee4)" style="fill: #3274a1"/>
   </g>
   <g id="patch_8">
    <path d="M 136.051347 184.902667 
L 145.321412 184.902667 
L 145.321412 188.804127 
L 136.051347 188.804127 
z
" clip-path="url(#p1678f5bee4)" style="fill: #3274a1"/>
   </g>
   <g id="patch_9">
    <path d="M 136.051347 219.040444 
L 148.764464 219.040444 
L 148.764464 222.941905 
L 136.051347 222.941905 
z
" clip-path="url(#p1678f5bee4)" style="fill: #3274a1"/>
   </g>
   <g id="patch_10">
    <path d="M 136.051347 253.178222 
L 140.004301 253.178222 
L 140.004301 257.079683 
L 136.051347 257.079683 
z
" clip-path="url(#p1678f5bee4)" style="fill: #3274a1"/>
   </g>
   <g id="patch_11">
    <path d="M 136.051347 287.316 
L 147.932654 287.316 
L 147.932654 291.21746 
L 136.051347 291.21746 
z
" clip-path="url(#p1678f5bee4)" style="fill: #3274a1"/>
   </g>
   <g id="patch_12">
    <path d="M 136.051347 18.115238 
L 182.79215 18.115238 
L 182.79215 22.016698 
L 136.051347 22.016698 
z
" clip-path="url(#p1678f5bee4)" style="fill: #e1812c"/>
   </g>
   <g id="patch_13">
    <path d="M 136.051347 52.253016 
L 144.159527 52.253016 
L 144.159527 56.154476 
L 136.051347 56.154476 
z
" clip-path="url(#p1678f5bee4)" style="fill: #e1812c"/>
   </g>
   <g id="patch_14">
    <path d="M 136.051347 86.390794 
L 214.510294 86.390794 
L 214.510294 90.292254 
L 136.051347 90.292254 
z
" clip-path="url(#p1678f5bee4)" style="fill: #e1812c"/>
   </g>
   <g id="patch_15">
    <path d="M 136.051347 120.528571 
L 139.776702 120.528571 
L 139.776702 124.430032 
L 136.051347 124.430032 
z
" clip-path="url(#p1678f5bee4)" style="fill: #e1812c"/>
   </g>
   <g id="patch_16">
    <path d="M 136.051347 154.666349 
L 139.746497 154.666349 
L 139.746497 158.56781 
L 136.051347 158.56781 
z
" clip-path="url(#p1678f5bee4)" style="fill: #e1812c"/>
   </g>
   <g id="patch_17">
    <path d="M 136.051347 188.804127 
L 145.394734 188.804127 
L 145.394734 192.705587 
L 136.051347 192.705587 
z
" clip-path="url(#p1678f5bee4)" style="fill: #e1812c"/>
   </g>
   <g id="patch_18">
    <path d="M 136.051347 222.941905 
L 150.474311 222.941905 
L 150.474311 226.843365 
L 136.051347 226.843365 
z
" clip-path="url(#p1678f5bee4)" style="fill: #e1812c"/>
   </g>
   <g id="patch_19">
    <path d="M 136.051347 257.079683 
L 140.119495 257.079683 
L 140.119495 260.981143 
L 136.051347 260.981143 
z
" clip-path="url(#p1678f5bee4)" style="fill: #e1812c"/>
   </g>
   <g id="patch_20">
    <path d="M 136.051347 291.21746 
L 148.242532 291.21746 
L 148.242532 295.118921 
L 136.051347 295.118921 
z
" clip-path="url(#p1678f5bee4)" style="fill: #e1812c"/>
   </g>
   <g id="patch_21">
    <path d="M 136.051347 22.016698 
L 208.559848 22.016698 
L 208.559848 25.918159 
L 136.051347 25.918159 
z
" clip-path="url(#p1678f5bee4)" style="fill: #3a923a"/>
   </g>
   <g id="patch_22">
    <path d="M 136.051347 56.154476 
L 148.332443 56.154476 
L 148.332443 60.055937 
L 136.051347 60.055937 
z
" clip-path="url(#p1678f5bee4)" style="fill: #3a923a"/>
   </g>
   <g id="patch_23">
    <path d="M 136.051347 90.292254 
L 477.429812 90.292254 
L 477.429812 94.193714 
L 136.051347 94.193714 
z
" clip-path="url(#p1678f5bee4)" style="fill: #3a923a"/>
   </g>
   <g id="patch_24">
    <path d="M 136.051347 124.430032 
L 141.349214 124.430032 
L 141.349214 128.331492 
L 136.051347 128.331492 
z
" clip-path="url(#p1678f5bee4)" style="fill: #3a923a"/>
   </g>
   <g id="patch_25">
    <path d="M 136.051347 158.56781 
L 140.778893 158.56781 
L 140.778893 162.46927 
L 136.051347 162.46927 
z
" clip-path="url(#p1678f5bee4)" style="fill: #3a923a"/>
   </g>
   <g id="patch_26">
    <path d="M 136.051347 192.705587 
L 160.963456 192.705587 
L 160.963456 196.607048 
L 136.051347 196.607048 
z
" clip-path="url(#p1678f5bee4)" style="fill: #3a923a"/>
   </g>
   <g id="patch_27">
    <path d="M 136.051347 226.843365 
L 157.918409 226.843365 
L 157.918409 230.744825 
L 136.051347 230.744825 
z
" clip-path="url(#p1678f5bee4)" style="fill: #3a923a"/>
   </g>
   <g id="patch_28">
    <path d="M 136.051347 260.981143 
L 149.559122 260.981143 
L 149.559122 264.882603 
L 136.051347 264.882603 
z
" clip-path="url(#p1678f5bee4)" style="fill: #3a923a"/>
   </g>
   <g id="patch_29">
    <path d="M 136.051347 295.118921 
L 191.538241 295.118921 
L 191.538241 299.020381 
L 136.051347 299.020381 
z
" clip-path="url(#p1678f5bee4)" style="fill: #3a923a"/>
   </g>
   <g id="patch_30">
    <path d="M 136.051347 25.918159 
L 171.022695 25.918159 
L 171.022695 29.819619 
L 136.051347 29.819619 
z
" clip-path="url(#p1678f5bee4)" style="fill: #c03d3e"/>
   </g>
   <g id="patch_31">
    <path d="M 136.051347 60.055937 
L 142.177897 60.055937 
L 142.177897 63.957397 
L 136.051347 63.957397 
z
" clip-path="url(#p1678f5bee4)" style="fill: #c03d3e"/>
   </g>
   <g id="patch_32">
    <path d="M 136.051347 94.193714 
L 213.710554 94.193714 
L 213.710554 98.095175 
L 136.051347 98.095175 
z
" clip-path="url(#p1678f5bee4)" style="fill: #c03d3e"/>
   </g>
   <g id="patch_33">
    <path d="M 136.051347 128.331492 
L 139.765693 128.331492 
L 139.765693 132.232952 
L 136.051347 132.232952 
z
" clip-path="url(#p1678f5bee4)" style="fill: #c03d3e"/>
   </g>
   <g id="patch_34">
    <path d="M 136.051347 162.46927 
L 139.731381 162.46927 
L 139.731381 166.37073 
L 136.051347 166.37073 
z
" clip-path="url(#p1678f5bee4)" style="fill: #c03d3e"/>
   </g>
   <g id="patch_35">
    <path d="M 136.051347 196.607048 
L 145.150621 196.607048 
L 145.150621 200.508508 
L 136.051347 200.508508 
z
" clip-path="url(#p1678f5bee4)" style="fill: #c03d3e"/>
   </g>
   <g id="patch_36">
    <path d="M 136.051347 230.744825 
L 146.258699 230.744825 
L 146.258699 234.646286 
L 136.051347 234.646286 
z
" clip-path="url(#p1678f5bee4)" style="fill: #c03d3e"/>
   </g>
   <g id="patch_37">
    <path d="M 136.051347 264.882603 
L 139.819653 264.882603 
L 139.819653 268.784063 
L 136.051347 268.784063 
z
" clip-path="url(#p1678f5bee4)" style="fill: #c03d3e"/>
   </g>
   <g id="patch_38">
    <path d="M 136.051347 299.020381 
L 146.559162 299.020381 
L 146.559162 302.921841 
L 136.051347 302.921841 
z
" clip-path="url(#p1678f5bee4)" style="fill: #c03d3e"/>
   </g>
   <g id="patch_39">
    <path d="M 136.051347 29.819619 
L 225.015535 29.819619 
L 225.015535 33.721079 
L 136.051347 33.721079 
z
" clip-path="url(#p1678f5bee4)" style="fill: #9372b2"/>
   </g>
   <g id="patch_40">
    <path d="M 136.051347 63.957397 
L 160.292812 63.957397 
L 160.292812 67.858857 
L 136.051347 67.858857 
z
" clip-path="url(#p1678f5bee4)" style="fill: #9372b2"/>
   </g>
   <g id="patch_41">
    <path d="M 136.051347 98.095175 
L 509.47002 98.095175 
L 509.47002 101.996635 
L 136.051347 101.996635 
z
" clip-path="url(#p1678f5bee4)" style="fill: #9372b2"/>
   </g>
   <g id="patch_42">
    <path d="M 136.051347 132.232952 
L 141.769897 132.232952 
L 141.769897 136.134413 
L 136.051347 136.134413 
z
" clip-path="url(#p1678f5bee4)" style="fill: #9372b2"/>
   </g>
   <g id="patch_43">
    <path d="M 136.051347 166.37073 
L 142.892533 166.37073 
L 142.892533 170.27219 
L 136.051347 170.27219 
z
" clip-path="url(#p1678f5bee4)" style="fill: #9372b2"/>
   </g>
   <g id="patch_44">
    <path d="M 136.051347 200.508508 
L 164.965736 200.508508 
L 164.965736 204.409968 
L 136.051347 204.409968 
z
" clip-path="url(#p1678f5bee4)" style="fill: #9372b2"/>
   </g>
   <g id="patch_45">
    <path d="M 136.051347 234.646286 
L 167.988947 234.646286 
L 167.988947 238.547746 
L 136.051347 238.547746 
z
" clip-path="url(#p1678f5bee4)" style="fill: #9372b2"/>
   </g>
   <g id="patch_46">
    <path d="M 136.051347 268.784063 
L 157.812476 268.784063 
L 157.812476 272.685524 
L 136.051347 272.685524 
z
" clip-path="url(#p1678f5bee4)" style="fill: #9372b2"/>
   </g>
   <g id="patch_47">
    <path d="M 136.051347 302.921841 
L 231.394043 302.921841 
L 231.394043 306.823302 
L 136.051347 306.823302 
z
" clip-path="url(#p1678f5bee4)" style="fill: #9372b2"/>
   </g>
   <g id="patch_48">
    <path d="M 136.051347 33.721079 
L 210.56184 33.721079 
L 210.56184 37.62254 
L 136.051347 37.62254 
z
" clip-path="url(#p1678f5bee4)" style="fill: #845b53"/>
   </g>
   <g id="patch_49">
    <path d="M 136.051347 67.858857 
L 151.98909 67.858857 
L 151.98909 71.760317 
L 136.051347 71.760317 
z
" clip-path="url(#p1678f5bee4)" style="fill: #845b53"/>
   </g>
   <g id="patch_50">
    <path d="M 136.051347 101.996635 
L 485.327783 101.996635 
L 485.327783 105.898095 
L 136.051347 105.898095 
z
" clip-path="url(#p1678f5bee4)" style="fill: #845b53"/>
   </g>
   <g id="patch_51">
    <path d="M 136.051347 136.134413 
L 141.97802 136.134413 
L 141.97802 140.035873 
L 136.051347 140.035873 
z
" clip-path="url(#p1678f5bee4)" style="fill: #845b53"/>
   </g>
   <g id="patch_52">
    <path d="M 136.051347 170.27219 
L 142.913513 170.27219 
L 142.913513 174.173651 
L 136.051347 174.173651 
z
" clip-path="url(#p1678f5bee4)" style="fill: #845b53"/>
   </g>
   <g id="patch_53">
    <path d="M 136.051347 204.409968 
L 161.390942 204.409968 
L 161.390942 208.311429 
L 136.051347 208.311429 
z
" clip-path="url(#p1678f5bee4)" style="fill: #845b53"/>
   </g>
   <g id="patch_54">
    <path d="M 136.051347 238.547746 
L 161.258772 238.547746 
L 161.258772 242.449206 
L 136.051347 242.449206 
z
" clip-path="url(#p1678f5bee4)" style="fill: #845b53"/>
   </g>
   <g id="patch_55">
    <path d="M 136.051347 272.685524 
L 150.385743 272.685524 
L 150.385743 276.586984 
L 136.051347 276.586984 
z
" clip-path="url(#p1678f5bee4)" style="fill: #845b53"/>
   </g>
   <g id="patch_56">
    <path d="M 136.051347 306.823302 
L 204.287049 306.823302 
L 204.287049 310.724762 
L 136.051347 310.724762 
z
" clip-path="url(#p1678f5bee4)" style="fill: #845b53"/>
   </g>
   <g id="patch_57">
    <path d="M 136.051347 37.62254 
L 208.23264 37.62254 
L 208.23264 41.524 
L 136.051347 41.524 
z
" clip-path="url(#p1678f5bee4)" style="fill: #d684bd"/>
   </g>
   <g id="patch_58">
    <path d="M 136.051347 71.760317 
L 151.489025 71.760317 
L 151.489025 75.661778 
L 136.051347 75.661778 
z
" clip-path="url(#p1678f5bee4)" style="fill: #d684bd"/>
   </g>
   <g id="patch_59">
    <path d="M 136.051347 105.898095 
L 482.044757 105.898095 
L 482.044757 109.799556 
L 136.051347 109.799556 
z
" clip-path="url(#p1678f5bee4)" style="fill: #d684bd"/>
   </g>
   <g id="patch_60">
    <path d="M 136.051347 140.035873 
L 141.97802 140.035873 
L 141.97802 143.937333 
L 136.051347 143.937333 
z
" clip-path="url(#p1678f5bee4)" style="fill: #d684bd"/>
   </g>
   <g id="patch_61">
    <path d="M 136.051347 174.173651 
L 142.913513 174.173651 
L 142.913513 178.075111 
L 136.051347 178.075111 
z
" clip-path="url(#p1678f5bee4)" style="fill: #d684bd"/>
   </g>
   <g id="patch_62">
    <path d="M 136.051347 208.311429 
L 161.390942 208.311429 
L 161.390942 212.212889 
L 136.051347 212.212889 
z
" clip-path="url(#p1678f5bee4)" style="fill: #d684bd"/>
   </g>
   <g id="patch_63">
    <path d="M 136.051347 242.449206 
L 159.355544 242.449206 
L 159.355544 246.350667 
L 136.051347 246.350667 
z
" clip-path="url(#p1678f5bee4)" style="fill: #d684bd"/>
   </g>
   <g id="patch_64">
    <path d="M 136.051347 276.586984 
L 149.567721 276.586984 
L 149.567721 280.488444 
L 136.051347 280.488444 
z
" clip-path="url(#p1678f5bee4)" style="fill: #d684bd"/>
   </g>
   <g id="patch_65">
    <path d="M 136.051347 310.724762 
L 196.324694 310.724762 
L 196.324694 314.626222 
L 136.051347 314.626222 
z
" clip-path="url(#p1678f5bee4)" style="fill: #d684bd"/>
   </g>
   <g id="matplotlib.axis_1">
    <g id="xtick_1">
     <g id="line2d_1">
      <defs>
       <path id="m56574d8da0" d="M 0 0 
L 0 3.5 
" style="stroke: #000000; stroke-width: 0.8"/>
      </defs>
      <g>
       <use xlink:href="#m56574d8da0" x="136.051347" y="318.04" style="stroke: #000000; stroke-width: 0.8"/>
      </g>
     </g>
     <g id="text_1">
      <!-- 0.000 -->
      <g transform="translate(121.737284 332.638438)scale(0.1 -0.1)">
       <defs>
        <path id="DejaVuSans-30" d="M 2034 4250 
Q 1547 4250 1301 3770 
Q 1056 3291 1056 2328 
Q 1056 1369 1301 889 
Q 1547 409 2034 409 
Q 2525 409 2770 889 
Q 3016 1369 3016 2328 
Q 3016 3291 2770 3770 
Q 2525 4250 2034 4250 
z
M 2034 4750 
Q 2819 4750 3233 4129 
Q 3647 3509 3647 2328 
Q 3647 1150 3233 529 
Q 2819 -91 2034 -91 
Q 1250 -91 836 529 
Q 422 1150 422 2328 
Q 422 3509 836 4129 
Q 1250 4750 2034 4750 
z
" transform="scale(0.015625)"/>
        <path id="DejaVuSans-2e" d="M 684 794 
L 1344 794 
L 1344 0 
L 684 0 
L 684 794 
z
" transform="scale(0.015625)"/>
       </defs>
       <use xlink:href="#DejaVuSans-30"/>
       <use xlink:href="#DejaVuSans-2e" x="63.623047"/>
       <use xlink:href="#DejaVuSans-30" x="95.410156"/>
       <use xlink:href="#DejaVuSans-30" x="159.033203"/>
       <use xlink:href="#DejaVuSans-30" x="222.65625"/>
      </g>
     </g>
    </g>
    <g id="xtick_2">
     <g id="line2d_2">
      <g>
       <use xlink:href="#m56574d8da0" x="211.356928" y="318.04" style="stroke: #000000; stroke-width: 0.8"/>
      </g>
     </g>
     <g id="text_2">
      <!-- 0.001 -->
      <g transform="translate(197.042866 332.638438)scale(0.1 -0.1)">
       <defs>
        <path id="DejaVuSans-31" d="M 794 531 
L 1825 531 
L 1825 4091 
L 703 3866 
L 703 4441 
L 1819 4666 
L 2450 4666 
L 2450 531 
L 3481 531 
L 3481 0 
L 794 0 
L 794 531 
z
" transform="scale(0.015625)"/>
       </defs>
       <use xlink:href="#DejaVuSans-30"/>
       <use xlink:href="#DejaVuSans-2e" x="63.623047"/>
       <use xlink:href="#DejaVuSans-30" x="95.410156"/>
       <use xlink:href="#DejaVuSans-30" x="159.033203"/>
       <use xlink:href="#DejaVuSans-31" x="222.65625"/>
      </g>
     </g>
    </g>
    <g id="xtick_3">
     <g id="line2d_3">
      <g>
       <use xlink:href="#m56574d8da0" x="286.662509" y="318.04" style="stroke: #000000; stroke-width: 0.8"/>
      </g>
     </g>
     <g id="text_3">
      <!-- 0.002 -->
      <g transform="translate(272.348447 332.638438)scale(0.1 -0.1)">
       <defs>
        <path id="DejaVuSans-32" d="M 1228 531 
L 3431 531 
L 3431 0 
L 469 0 
L 469 531 
Q 828 903 1448 1529 
Q 2069 2156 2228 2338 
Q 2531 2678 2651 2914 
Q 2772 3150 2772 3378 
Q 2772 3750 2511 3984 
Q 2250 4219 1831 4219 
Q 1534 4219 1204 4116 
Q 875 4013 500 3803 
L 500 4441 
Q 881 4594 1212 4672 
Q 1544 4750 1819 4750 
Q 2544 4750 2975 4387 
Q 3406 4025 3406 3419 
Q 3406 3131 3298 2873 
Q 3191 2616 2906 2266 
Q 2828 2175 2409 1742 
Q 1991 1309 1228 531 
z
" transform="scale(0.015625)"/>
       </defs>
       <use xlink:href="#DejaVuSans-30"/>
       <use xlink:href="#DejaVuSans-2e" x="63.623047"/>
       <use xlink:href="#DejaVuSans-30" x="95.410156"/>
       <use xlink:href="#DejaVuSans-30" x="159.033203"/>
       <use xlink:href="#DejaVuSans-32" x="222.65625"/>
      </g>
     </g>
    </g>
    <g id="xtick_4">
     <g id="line2d_4">
      <g>
       <use xlink:href="#m56574d8da0" x="361.968091" y="318.04" style="stroke: #000000; stroke-width: 0.8"/>
      </g>
     </g>
     <g id="text_4">
      <!-- 0.003 -->
      <g transform="translate(347.654028 332.638438)scale(0.1 -0.1)">
       <defs>
        <path id="DejaVuSans-33" d="M 2597 2516 
Q 3050 2419 3304 2112 
Q 3559 1806 3559 1356 
Q 3559 666 3084 287 
Q 2609 -91 1734 -91 
Q 1441 -91 1130 -33 
Q 819 25 488 141 
L 488 750 
Q 750 597 1062 519 
Q 1375 441 1716 441 
Q 2309 441 2620 675 
Q 2931 909 2931 1356 
Q 2931 1769 2642 2001 
Q 2353 2234 1838 2234 
L 1294 2234 
L 1294 2753 
L 1863 2753 
Q 2328 2753 2575 2939 
Q 2822 3125 2822 3475 
Q 2822 3834 2567 4026 
Q 2313 4219 1838 4219 
Q 1578 4219 1281 4162 
Q 984 4106 628 3988 
L 628 4550 
Q 988 4650 1302 4700 
Q 1616 4750 1894 4750 
Q 2613 4750 3031 4423 
Q 3450 4097 3450 3541 
Q 3450 3153 3228 2886 
Q 3006 2619 2597 2516 
z
" transform="scale(0.015625)"/>
       </defs>
       <use xlink:href="#DejaVuSans-30"/>
       <use xlink:href="#DejaVuSans-2e" x="63.623047"/>
       <use xlink:href="#DejaVuSans-30" x="95.410156"/>
       <use xlink:href="#DejaVuSans-30" x="159.033203"/>
       <use xlink:href="#DejaVuSans-33" x="222.65625"/>
      </g>
     </g>
    </g>
    <g id="xtick_5">
     <g id="line2d_5">
      <g>
       <use xlink:href="#m56574d8da0" x="437.273672" y="318.04" style="stroke: #000000; stroke-width: 0.8"/>
      </g>
     </g>
     <g id="text_5">
      <!-- 0.004 -->
      <g transform="translate(422.95961 332.638438)scale(0.1 -0.1)">
       <defs>
        <path id="DejaVuSans-34" d="M 2419 4116 
L 825 1625 
L 2419 1625 
L 2419 4116 
z
M 2253 4666 
L 3047 4666 
L 3047 1625 
L 3713 1625 
L 3713 1100 
L 3047 1100 
L 3047 0 
L 2419 0 
L 2419 1100 
L 313 1100 
L 313 1709 
L 2253 4666 
z
" transform="scale(0.015625)"/>
       </defs>
       <use xlink:href="#DejaVuSans-30"/>
       <use xlink:href="#DejaVuSans-2e" x="63.623047"/>
       <use xlink:href="#DejaVuSans-30" x="95.410156"/>
       <use xlink:href="#DejaVuSans-30" x="159.033203"/>
       <use xlink:href="#DejaVuSans-34" x="222.65625"/>
      </g>
     </g>
    </g>
    <g id="xtick_6">
     <g id="line2d_6">
      <g>
       <use xlink:href="#m56574d8da0" x="512.579254" y="318.04" style="stroke: #000000; stroke-width: 0.8"/>
      </g>
     </g>
     <g id="text_6">
      <!-- 0.005 -->
      <g transform="translate(498.265191 332.638438)scale(0.1 -0.1)">
       <defs>
        <path id="DejaVuSans-35" d="M 691 4666 
L 3169 4666 
L 3169 4134 
L 1269 4134 
L 1269 2991 
Q 1406 3038 1543 3061 
Q 1681 3084 1819 3084 
Q 2600 3084 3056 2656 
Q 3513 2228 3513 1497 
Q 3513 744 3044 326 
Q 2575 -91 1722 -91 
Q 1428 -91 1123 -41 
Q 819 9 494 109 
L 494 744 
Q 775 591 1075 516 
Q 1375 441 1709 441 
Q 2250 441 2565 725 
Q 2881 1009 2881 1497 
Q 2881 1984 2565 2268 
Q 2250 2553 1709 2553 
Q 1456 2553 1204 2497 
Q 953 2441 691 2322 
L 691 4666 
z
" transform="scale(0.015625)"/>
       </defs>
       <use xlink:href="#DejaVuSans-30"/>
       <use xlink:href="#DejaVuSans-2e" x="63.623047"/>
       <use xlink:href="#DejaVuSans-30" x="95.410156"/>
       <use xlink:href="#DejaVuSans-30" x="159.033203"/>
       <use xlink:href="#DejaVuSans-35" x="222.65625"/>
      </g>
     </g>
    </g>
    <g id="text_7">
     <!-- iamr -->
     <g transform="translate(323.022619 346.316563)scale(0.1 -0.1)">
      <defs>
       <path id="DejaVuSans-69" d="M 603 3500 
L 1178 3500 
L 1178 0 
L 603 0 
L 603 3500 
z
M 603 4863 
L 1178 4863 
L 1178 4134 
L 603 4134 
L 603 4863 
z
" transform="scale(0.015625)"/>
       <path id="DejaVuSans-61" d="M 2194 1759 
Q 1497 1759 1228 1600 
Q 959 1441 959 1056 
Q 959 750 1161 570 
Q 1363 391 1709 391 
Q 2188 391 2477 730 
Q 2766 1069 2766 1631 
L 2766 1759 
L 2194 1759 
z
M 3341 1997 
L 3341 0 
L 2766 0 
L 2766 531 
Q 2569 213 2275 61 
Q 1981 -91 1556 -91 
Q 1019 -91 701 211 
Q 384 513 384 1019 
Q 384 1609 779 1909 
Q 1175 2209 1959 2209 
L 2766 2209 
L 2766 2266 
Q 2766 2663 2505 2880 
Q 2244 3097 1772 3097 
Q 1472 3097 1187 3025 
Q 903 2953 641 2809 
L 641 3341 
Q 956 3463 1253 3523 
Q 1550 3584 1831 3584 
Q 2591 3584 2966 3190 
Q 3341 2797 3341 1997 
z
" transform="scale(0.015625)"/>
       <path id="DejaVuSans-6d" d="M 3328 2828 
Q 3544 3216 3844 3400 
Q 4144 3584 4550 3584 
Q 5097 3584 5394 3201 
Q 5691 2819 5691 2113 
L 5691 0 
L 5113 0 
L 5113 2094 
Q 5113 2597 4934 2840 
Q 4756 3084 4391 3084 
Q 3944 3084 3684 2787 
Q 3425 2491 3425 1978 
L 3425 0 
L 2847 0 
L 2847 2094 
Q 2847 2600 2669 2842 
Q 2491 3084 2119 3084 
Q 1678 3084 1418 2786 
Q 1159 2488 1159 1978 
L 1159 0 
L 581 0 
L 581 3500 
L 1159 3500 
L 1159 2956 
Q 1356 3278 1631 3431 
Q 1906 3584 2284 3584 
Q 2666 3584 2933 3390 
Q 3200 3197 3328 2828 
z
" transform="scale(0.015625)"/>
       <path id="DejaVuSans-72" d="M 2631 2963 
Q 2534 3019 2420 3045 
Q 2306 3072 2169 3072 
Q 1681 3072 1420 2755 
Q 1159 2438 1159 1844 
L 1159 0 
L 581 0 
L 581 3500 
L 1159 3500 
L 1159 2956 
Q 1341 3275 1631 3429 
Q 1922 3584 2338 3584 
Q 2397 3584 2469 3576 
Q 2541 3569 2628 3553 
L 2631 2963 
z
" transform="scale(0.015625)"/>
      </defs>
      <use xlink:href="#DejaVuSans-69"/>
      <use xlink:href="#DejaVuSans-61" x="27.783203"/>
      <use xlink:href="#DejaVuSans-6d" x="89.0625"/>
      <use xlink:href="#DejaVuSans-72" x="186.474609"/>
     </g>
    </g>
   </g>
   <g id="matplotlib.axis_2">
    <g id="ytick_1">
     <g id="line2d_7">
      <defs>
       <path id="m18fc3d7fdc" d="M 0 0 
L -3.5 0 
" style="stroke: #000000; stroke-width: 0.8"/>
      </defs>
      <g>
       <use xlink:href="#m18fc3d7fdc" x="136.051347" y="27.868889" style="stroke: #000000; stroke-width: 0.8"/>
      </g>
     </g>
     <g id="text_8">
      <!-- CN3l -->
      <g transform="translate(105.446659 31.668108)scale(0.1 -0.1)">
       <defs>
        <path id="DejaVuSans-43" d="M 4122 4306 
L 4122 3641 
Q 3803 3938 3442 4084 
Q 3081 4231 2675 4231 
Q 1875 4231 1450 3742 
Q 1025 3253 1025 2328 
Q 1025 1406 1450 917 
Q 1875 428 2675 428 
Q 3081 428 3442 575 
Q 3803 722 4122 1019 
L 4122 359 
Q 3791 134 3420 21 
Q 3050 -91 2638 -91 
Q 1578 -91 968 557 
Q 359 1206 359 2328 
Q 359 3453 968 4101 
Q 1578 4750 2638 4750 
Q 3056 4750 3426 4639 
Q 3797 4528 4122 4306 
z
" transform="scale(0.015625)"/>
        <path id="DejaVuSans-4e" d="M 628 4666 
L 1478 4666 
L 3547 763 
L 3547 4666 
L 4159 4666 
L 4159 0 
L 3309 0 
L 1241 3903 
L 1241 0 
L 628 0 
L 628 4666 
z
" transform="scale(0.015625)"/>
        <path id="DejaVuSans-6c" d="M 603 4863 
L 1178 4863 
L 1178 0 
L 603 0 
L 603 4863 
z
" transform="scale(0.015625)"/>
       </defs>
       <use xlink:href="#DejaVuSans-43"/>
       <use xlink:href="#DejaVuSans-4e" x="69.824219"/>
       <use xlink:href="#DejaVuSans-33" x="144.628906"/>
       <use xlink:href="#DejaVuSans-6c" x="208.251953"/>
      </g>
     </g>
    </g>
    <g id="ytick_2">
     <g id="line2d_8">
      <g>
       <use xlink:href="#m18fc3d7fdc" x="136.051347" y="62.006667" style="stroke: #000000; stroke-width: 0.8"/>
      </g>
     </g>
     <g id="text_9">
      <!-- DBpedia50 -->
      <g transform="translate(74.009159 65.805885)scale(0.1 -0.1)">
       <defs>
        <path id="DejaVuSans-44" d="M 1259 4147 
L 1259 519 
L 2022 519 
Q 2988 519 3436 956 
Q 3884 1394 3884 2338 
Q 3884 3275 3436 3711 
Q 2988 4147 2022 4147 
L 1259 4147 
z
M 628 4666 
L 1925 4666 
Q 3281 4666 3915 4102 
Q 4550 3538 4550 2338 
Q 4550 1131 3912 565 
Q 3275 0 1925 0 
L 628 0 
L 628 4666 
z
" transform="scale(0.015625)"/>
        <path id="DejaVuSans-42" d="M 1259 2228 
L 1259 519 
L 2272 519 
Q 2781 519 3026 730 
Q 3272 941 3272 1375 
Q 3272 1813 3026 2020 
Q 2781 2228 2272 2228 
L 1259 2228 
z
M 1259 4147 
L 1259 2741 
L 2194 2741 
Q 2656 2741 2882 2914 
Q 3109 3088 3109 3444 
Q 3109 3797 2882 3972 
Q 2656 4147 2194 4147 
L 1259 4147 
z
M 628 4666 
L 2241 4666 
Q 2963 4666 3353 4366 
Q 3744 4066 3744 3513 
Q 3744 3084 3544 2831 
Q 3344 2578 2956 2516 
Q 3422 2416 3680 2098 
Q 3938 1781 3938 1306 
Q 3938 681 3513 340 
Q 3088 0 2303 0 
L 628 0 
L 628 4666 
z
" transform="scale(0.015625)"/>
        <path id="DejaVuSans-70" d="M 1159 525 
L 1159 -1331 
L 581 -1331 
L 581 3500 
L 1159 3500 
L 1159 2969 
Q 1341 3281 1617 3432 
Q 1894 3584 2278 3584 
Q 2916 3584 3314 3078 
Q 3713 2572 3713 1747 
Q 3713 922 3314 415 
Q 2916 -91 2278 -91 
Q 1894 -91 1617 61 
Q 1341 213 1159 525 
z
M 3116 1747 
Q 3116 2381 2855 2742 
Q 2594 3103 2138 3103 
Q 1681 3103 1420 2742 
Q 1159 2381 1159 1747 
Q 1159 1113 1420 752 
Q 1681 391 2138 391 
Q 2594 391 2855 752 
Q 3116 1113 3116 1747 
z
" transform="scale(0.015625)"/>
        <path id="DejaVuSans-65" d="M 3597 1894 
L 3597 1613 
L 953 1613 
Q 991 1019 1311 708 
Q 1631 397 2203 397 
Q 2534 397 2845 478 
Q 3156 559 3463 722 
L 3463 178 
Q 3153 47 2828 -22 
Q 2503 -91 2169 -91 
Q 1331 -91 842 396 
Q 353 884 353 1716 
Q 353 2575 817 3079 
Q 1281 3584 2069 3584 
Q 2775 3584 3186 3129 
Q 3597 2675 3597 1894 
z
M 3022 2063 
Q 3016 2534 2758 2815 
Q 2500 3097 2075 3097 
Q 1594 3097 1305 2825 
Q 1016 2553 972 2059 
L 3022 2063 
z
" transform="scale(0.015625)"/>
        <path id="DejaVuSans-64" d="M 2906 2969 
L 2906 4863 
L 3481 4863 
L 3481 0 
L 2906 0 
L 2906 525 
Q 2725 213 2448 61 
Q 2172 -91 1784 -91 
Q 1150 -91 751 415 
Q 353 922 353 1747 
Q 353 2572 751 3078 
Q 1150 3584 1784 3584 
Q 2172 3584 2448 3432 
Q 2725 3281 2906 2969 
z
M 947 1747 
Q 947 1113 1208 752 
Q 1469 391 1925 391 
Q 2381 391 2643 752 
Q 2906 1113 2906 1747 
Q 2906 2381 2643 2742 
Q 2381 3103 1925 3103 
Q 1469 3103 1208 2742 
Q 947 2381 947 1747 
z
" transform="scale(0.015625)"/>
       </defs>
       <use xlink:href="#DejaVuSans-44"/>
       <use xlink:href="#DejaVuSans-42" x="77.001953"/>
       <use xlink:href="#DejaVuSans-70" x="145.605469"/>
       <use xlink:href="#DejaVuSans-65" x="209.082031"/>
       <use xlink:href="#DejaVuSans-64" x="270.605469"/>
       <use xlink:href="#DejaVuSans-69" x="334.082031"/>
       <use xlink:href="#DejaVuSans-61" x="361.865234"/>
       <use xlink:href="#DejaVuSans-35" x="423.144531"/>
       <use xlink:href="#DejaVuSans-30" x="486.767578"/>
      </g>
     </g>
    </g>
    <g id="ytick_3">
     <g id="line2d_9">
      <g>
       <use xlink:href="#m18fc3d7fdc" x="136.051347" y="96.144444" style="stroke: #000000; stroke-width: 0.8"/>
      </g>
     </g>
     <g id="text_10">
      <!-- CoDExSmall -->
      <g transform="translate(68.238847 99.943663)scale(0.1 -0.1)">
       <defs>
        <path id="DejaVuSans-6f" d="M 1959 3097 
Q 1497 3097 1228 2736 
Q 959 2375 959 1747 
Q 959 1119 1226 758 
Q 1494 397 1959 397 
Q 2419 397 2687 759 
Q 2956 1122 2956 1747 
Q 2956 2369 2687 2733 
Q 2419 3097 1959 3097 
z
M 1959 3584 
Q 2709 3584 3137 3096 
Q 3566 2609 3566 1747 
Q 3566 888 3137 398 
Q 2709 -91 1959 -91 
Q 1206 -91 779 398 
Q 353 888 353 1747 
Q 353 2609 779 3096 
Q 1206 3584 1959 3584 
z
" transform="scale(0.015625)"/>
        <path id="DejaVuSans-45" d="M 628 4666 
L 3578 4666 
L 3578 4134 
L 1259 4134 
L 1259 2753 
L 3481 2753 
L 3481 2222 
L 1259 2222 
L 1259 531 
L 3634 531 
L 3634 0 
L 628 0 
L 628 4666 
z
" transform="scale(0.015625)"/>
        <path id="DejaVuSans-78" d="M 3513 3500 
L 2247 1797 
L 3578 0 
L 2900 0 
L 1881 1375 
L 863 0 
L 184 0 
L 1544 1831 
L 300 3500 
L 978 3500 
L 1906 2253 
L 2834 3500 
L 3513 3500 
z
" transform="scale(0.015625)"/>
        <path id="DejaVuSans-53" d="M 3425 4513 
L 3425 3897 
Q 3066 4069 2747 4153 
Q 2428 4238 2131 4238 
Q 1616 4238 1336 4038 
Q 1056 3838 1056 3469 
Q 1056 3159 1242 3001 
Q 1428 2844 1947 2747 
L 2328 2669 
Q 3034 2534 3370 2195 
Q 3706 1856 3706 1288 
Q 3706 609 3251 259 
Q 2797 -91 1919 -91 
Q 1588 -91 1214 -16 
Q 841 59 441 206 
L 441 856 
Q 825 641 1194 531 
Q 1563 422 1919 422 
Q 2459 422 2753 634 
Q 3047 847 3047 1241 
Q 3047 1584 2836 1778 
Q 2625 1972 2144 2069 
L 1759 2144 
Q 1053 2284 737 2584 
Q 422 2884 422 3419 
Q 422 4038 858 4394 
Q 1294 4750 2059 4750 
Q 2388 4750 2728 4690 
Q 3069 4631 3425 4513 
z
" transform="scale(0.015625)"/>
       </defs>
       <use xlink:href="#DejaVuSans-43"/>
       <use xlink:href="#DejaVuSans-6f" x="69.824219"/>
       <use xlink:href="#DejaVuSans-44" x="131.005859"/>
       <use xlink:href="#DejaVuSans-45" x="208.007812"/>
       <use xlink:href="#DejaVuSans-78" x="271.191406"/>
       <use xlink:href="#DejaVuSans-53" x="330.371094"/>
       <use xlink:href="#DejaVuSans-6d" x="393.847656"/>
       <use xlink:href="#DejaVuSans-61" x="491.259766"/>
       <use xlink:href="#DejaVuSans-6c" x="552.539062"/>
       <use xlink:href="#DejaVuSans-6c" x="580.322266"/>
      </g>
     </g>
    </g>
    <g id="ytick_4">
     <g id="line2d_10">
      <g>
       <use xlink:href="#m18fc3d7fdc" x="136.051347" y="130.282222" style="stroke: #000000; stroke-width: 0.8"/>
      </g>
     </g>
     <g id="text_11">
      <!-- WN18RR -->
      <g transform="translate(85.060722 134.081441)scale(0.1 -0.1)">
       <defs>
        <path id="DejaVuSans-57" d="M 213 4666 
L 850 4666 
L 1831 722 
L 2809 4666 
L 3519 4666 
L 4500 722 
L 5478 4666 
L 6119 4666 
L 4947 0 
L 4153 0 
L 3169 4050 
L 2175 0 
L 1381 0 
L 213 4666 
z
" transform="scale(0.015625)"/>
        <path id="DejaVuSans-38" d="M 2034 2216 
Q 1584 2216 1326 1975 
Q 1069 1734 1069 1313 
Q 1069 891 1326 650 
Q 1584 409 2034 409 
Q 2484 409 2743 651 
Q 3003 894 3003 1313 
Q 3003 1734 2745 1975 
Q 2488 2216 2034 2216 
z
M 1403 2484 
Q 997 2584 770 2862 
Q 544 3141 544 3541 
Q 544 4100 942 4425 
Q 1341 4750 2034 4750 
Q 2731 4750 3128 4425 
Q 3525 4100 3525 3541 
Q 3525 3141 3298 2862 
Q 3072 2584 2669 2484 
Q 3125 2378 3379 2068 
Q 3634 1759 3634 1313 
Q 3634 634 3220 271 
Q 2806 -91 2034 -91 
Q 1263 -91 848 271 
Q 434 634 434 1313 
Q 434 1759 690 2068 
Q 947 2378 1403 2484 
z
M 1172 3481 
Q 1172 3119 1398 2916 
Q 1625 2713 2034 2713 
Q 2441 2713 2670 2916 
Q 2900 3119 2900 3481 
Q 2900 3844 2670 4047 
Q 2441 4250 2034 4250 
Q 1625 4250 1398 4047 
Q 1172 3844 1172 3481 
z
" transform="scale(0.015625)"/>
        <path id="DejaVuSans-52" d="M 2841 2188 
Q 3044 2119 3236 1894 
Q 3428 1669 3622 1275 
L 4263 0 
L 3584 0 
L 2988 1197 
Q 2756 1666 2539 1819 
Q 2322 1972 1947 1972 
L 1259 1972 
L 1259 0 
L 628 0 
L 628 4666 
L 2053 4666 
Q 2853 4666 3247 4331 
Q 3641 3997 3641 3322 
Q 3641 2881 3436 2590 
Q 3231 2300 2841 2188 
z
M 1259 4147 
L 1259 2491 
L 2053 2491 
Q 2509 2491 2742 2702 
Q 2975 2913 2975 3322 
Q 2975 3731 2742 3939 
Q 2509 4147 2053 4147 
L 1259 4147 
z
" transform="scale(0.015625)"/>
       </defs>
       <use xlink:href="#DejaVuSans-57"/>
       <use xlink:href="#DejaVuSans-4e" x="98.876953"/>
       <use xlink:href="#DejaVuSans-31" x="173.681641"/>
       <use xlink:href="#DejaVuSans-38" x="237.304688"/>
       <use xlink:href="#DejaVuSans-52" x="300.927734"/>
       <use xlink:href="#DejaVuSans-52" x="370.410156"/>
      </g>
     </g>
    </g>
    <g id="ytick_5">
     <g id="line2d_11">
      <g>
       <use xlink:href="#m18fc3d7fdc" x="136.051347" y="164.42" style="stroke: #000000; stroke-width: 0.8"/>
      </g>
     </g>
     <g id="text_12">
      <!-- WN18 -->
      <g transform="translate(98.957597 168.219219)scale(0.1 -0.1)">
       <use xlink:href="#DejaVuSans-57"/>
       <use xlink:href="#DejaVuSans-4e" x="98.876953"/>
       <use xlink:href="#DejaVuSans-31" x="173.681641"/>
       <use xlink:href="#DejaVuSans-38" x="237.304688"/>
      </g>
     </g>
    </g>
    <g id="ytick_6">
     <g id="line2d_12">
      <g>
       <use xlink:href="#m18fc3d7fdc" x="136.051347" y="198.557778" style="stroke: #000000; stroke-width: 0.8"/>
      </g>
     </g>
     <g id="text_13">
      <!-- CoDExMedium -->
      <g transform="translate(56.026347 202.356997)scale(0.1 -0.1)">
       <defs>
        <path id="DejaVuSans-4d" d="M 628 4666 
L 1569 4666 
L 2759 1491 
L 3956 4666 
L 4897 4666 
L 4897 0 
L 4281 0 
L 4281 4097 
L 3078 897 
L 2444 897 
L 1241 4097 
L 1241 0 
L 628 0 
L 628 4666 
z
" transform="scale(0.015625)"/>
        <path id="DejaVuSans-75" d="M 544 1381 
L 544 3500 
L 1119 3500 
L 1119 1403 
Q 1119 906 1312 657 
Q 1506 409 1894 409 
Q 2359 409 2629 706 
Q 2900 1003 2900 1516 
L 2900 3500 
L 3475 3500 
L 3475 0 
L 2900 0 
L 2900 538 
Q 2691 219 2414 64 
Q 2138 -91 1772 -91 
Q 1169 -91 856 284 
Q 544 659 544 1381 
z
M 1991 3584 
L 1991 3584 
z
" transform="scale(0.015625)"/>
       </defs>
       <use xlink:href="#DejaVuSans-43"/>
       <use xlink:href="#DejaVuSans-6f" x="69.824219"/>
       <use xlink:href="#DejaVuSans-44" x="131.005859"/>
       <use xlink:href="#DejaVuSans-45" x="208.007812"/>
       <use xlink:href="#DejaVuSans-78" x="271.191406"/>
       <use xlink:href="#DejaVuSans-4d" x="330.371094"/>
       <use xlink:href="#DejaVuSans-65" x="416.650391"/>
       <use xlink:href="#DejaVuSans-64" x="478.173828"/>
       <use xlink:href="#DejaVuSans-69" x="541.650391"/>
       <use xlink:href="#DejaVuSans-75" x="569.433594"/>
       <use xlink:href="#DejaVuSans-6d" x="632.8125"/>
      </g>
     </g>
    </g>
    <g id="ytick_7">
     <g id="line2d_13">
      <g>
       <use xlink:href="#m18fc3d7fdc" x="136.051347" y="232.695556" style="stroke: #000000; stroke-width: 0.8"/>
      </g>
     </g>
     <g id="text_14">
      <!-- WK3l15k -->
      <g transform="translate(84.949784 236.494774)scale(0.1 -0.1)">
       <defs>
        <path id="DejaVuSans-4b" d="M 628 4666 
L 1259 4666 
L 1259 2694 
L 3353 4666 
L 4166 4666 
L 1850 2491 
L 4331 0 
L 3500 0 
L 1259 2247 
L 1259 0 
L 628 0 
L 628 4666 
z
" transform="scale(0.015625)"/>
        <path id="DejaVuSans-6b" d="M 581 4863 
L 1159 4863 
L 1159 1991 
L 2875 3500 
L 3609 3500 
L 1753 1863 
L 3688 0 
L 2938 0 
L 1159 1709 
L 1159 0 
L 581 0 
L 581 4863 
z
" transform="scale(0.015625)"/>
       </defs>
       <use xlink:href="#DejaVuSans-57"/>
       <use xlink:href="#DejaVuSans-4b" x="98.876953"/>
       <use xlink:href="#DejaVuSans-33" x="164.453125"/>
       <use xlink:href="#DejaVuSans-6c" x="228.076172"/>
       <use xlink:href="#DejaVuSans-31" x="255.859375"/>
       <use xlink:href="#DejaVuSans-35" x="319.482422"/>
       <use xlink:href="#DejaVuSans-6b" x="383.105469"/>
      </g>
     </g>
    </g>
    <g id="ytick_8">
     <g id="line2d_14">
      <g>
       <use xlink:href="#m18fc3d7fdc" x="136.051347" y="266.833333" style="stroke: #000000; stroke-width: 0.8"/>
      </g>
     </g>
     <g id="text_15">
      <!-- WD50KT -->
      <g transform="translate(86.848222 270.632552)scale(0.1 -0.1)">
       <defs>
        <path id="DejaVuSans-54" d="M -19 4666 
L 3928 4666 
L 3928 4134 
L 2272 4134 
L 2272 0 
L 1638 0 
L 1638 4134 
L -19 4134 
L -19 4666 
z
" transform="scale(0.015625)"/>
       </defs>
       <use xlink:href="#DejaVuSans-57"/>
       <use xlink:href="#DejaVuSans-44" x="98.876953"/>
       <use xlink:href="#DejaVuSans-35" x="175.878906"/>
       <use xlink:href="#DejaVuSans-30" x="239.501953"/>
       <use xlink:href="#DejaVuSans-4b" x="303.125"/>
       <use xlink:href="#DejaVuSans-54" x="360.951172"/>
      </g>
     </g>
    </g>
    <g id="ytick_9">
     <g id="line2d_15">
      <g>
       <use xlink:href="#m18fc3d7fdc" x="136.051347" y="300.971111" style="stroke: #000000; stroke-width: 0.8"/>
      </g>
     </g>
     <g id="text_16">
      <!-- FB15k237 -->
      <g transform="translate(78.835722 304.77033)scale(0.1 -0.1)">
       <defs>
        <path id="DejaVuSans-46" d="M 628 4666 
L 3309 4666 
L 3309 4134 
L 1259 4134 
L 1259 2759 
L 3109 2759 
L 3109 2228 
L 1259 2228 
L 1259 0 
L 628 0 
L 628 4666 
z
" transform="scale(0.015625)"/>
        <path id="DejaVuSans-37" d="M 525 4666 
L 3525 4666 
L 3525 4397 
L 1831 0 
L 1172 0 
L 2766 4134 
L 525 4134 
L 525 4666 
z
" transform="scale(0.015625)"/>
       </defs>
       <use xlink:href="#DejaVuSans-46"/>
       <use xlink:href="#DejaVuSans-42" x="57.519531"/>
       <use xlink:href="#DejaVuSans-31" x="126.123047"/>
       <use xlink:href="#DejaVuSans-35" x="189.746094"/>
       <use xlink:href="#DejaVuSans-6b" x="253.369141"/>
       <use xlink:href="#DejaVuSans-32" x="311.279297"/>
       <use xlink:href="#DejaVuSans-33" x="374.902344"/>
       <use xlink:href="#DejaVuSans-37" x="438.525391"/>
      </g>
     </g>
    </g>
   </g>
   <g id="line2d_16">
    <path d="M 178.513897 16.164508 
L 178.933222 16.164508 
" clip-path="url(#p1678f5bee4)" style="fill: none; stroke: #424242; stroke-width: 2.7; stroke-linecap: square"/>
   </g>
   <g id="line2d_17">
    <path d="M 142.794389 50.302286 
L 142.826737 50.302286 
" clip-path="url(#p1678f5bee4)" style="fill: none; stroke: #424242; stroke-width: 2.7; stroke-linecap: square"/>
   </g>
   <g id="line2d_18">
    <path d="M 214.524885 84.440063 
L 214.649906 84.440063 
" clip-path="url(#p1678f5bee4)" style="fill: none; stroke: #424242; stroke-width: 2.7; stroke-linecap: square"/>
   </g>
   <g id="line2d_19">
    <path d="M 139.769226 118.577841 
L 139.77122 118.577841 
" clip-path="url(#p1678f5bee4)" style="fill: none; stroke: #424242; stroke-width: 2.7; stroke-linecap: square"/>
   </g>
   <g id="line2d_20">
    <path d="M 139.737211 152.715619 
L 139.739402 152.715619 
" clip-path="url(#p1678f5bee4)" style="fill: none; stroke: #424242; stroke-width: 2.7; stroke-linecap: square"/>
   </g>
   <g id="line2d_21">
    <path d="M 145.312235 186.853397 
L 145.330075 186.853397 
" clip-path="url(#p1678f5bee4)" style="fill: none; stroke: #424242; stroke-width: 2.7; stroke-linecap: square"/>
   </g>
   <g id="line2d_22">
    <path d="M 148.738949 220.991175 
L 148.792805 220.991175 
" clip-path="url(#p1678f5bee4)" style="fill: none; stroke: #424242; stroke-width: 2.7; stroke-linecap: square"/>
   </g>
   <g id="line2d_23">
    <path d="M 140.002583 255.128952 
L 140.006093 255.128952 
" clip-path="url(#p1678f5bee4)" style="fill: none; stroke: #424242; stroke-width: 2.7; stroke-linecap: square"/>
   </g>
   <g id="line2d_24">
    <path d="M 147.919394 289.26673 
L 147.947001 289.26673 
" clip-path="url(#p1678f5bee4)" style="fill: none; stroke: #424242; stroke-width: 2.7; stroke-linecap: square"/>
   </g>
   <g id="line2d_25">
    <path d="M 182.470908 20.065968 
L 183.089523 20.065968 
" clip-path="url(#p1678f5bee4)" style="fill: none; stroke: #424242; stroke-width: 2.7; stroke-linecap: square"/>
   </g>
   <g id="line2d_26">
    <path d="M 144.100177 54.203746 
L 144.224767 54.203746 
" clip-path="url(#p1678f5bee4)" style="fill: none; stroke: #424242; stroke-width: 2.7; stroke-linecap: square"/>
   </g>
   <g id="line2d_27">
    <path d="M 214.416946 88.341524 
L 214.599846 88.341524 
" clip-path="url(#p1678f5bee4)" style="fill: none; stroke: #424242; stroke-width: 2.7; stroke-linecap: square"/>
   </g>
   <g id="line2d_28">
    <path d="M 139.774639 122.479302 
L 139.77913 122.479302 
" clip-path="url(#p1678f5bee4)" style="fill: none; stroke: #424242; stroke-width: 2.7; stroke-linecap: square"/>
   </g>
   <g id="line2d_29">
    <path d="M 139.744429 156.617079 
L 139.748736 156.617079 
" clip-path="url(#p1678f5bee4)" style="fill: none; stroke: #424242; stroke-width: 2.7; stroke-linecap: square"/>
   </g>
   <g id="line2d_30">
    <path d="M 145.382259 190.754857 
L 145.406195 190.754857 
" clip-path="url(#p1678f5bee4)" style="fill: none; stroke: #424242; stroke-width: 2.7; stroke-linecap: square"/>
   </g>
   <g id="line2d_31">
    <path d="M 150.433034 224.892635 
L 150.521909 224.892635 
" clip-path="url(#p1678f5bee4)" style="fill: none; stroke: #424242; stroke-width: 2.7; stroke-linecap: square"/>
   </g>
   <g id="line2d_32">
    <path d="M 140.117108 259.030413 
L 140.121785 259.030413 
" clip-path="url(#p1678f5bee4)" style="fill: none; stroke: #424242; stroke-width: 2.7; stroke-linecap: square"/>
   </g>
   <g id="line2d_33">
    <path d="M 148.226962 293.16819 
L 148.258363 293.16819 
" clip-path="url(#p1678f5bee4)" style="fill: none; stroke: #424242; stroke-width: 2.7; stroke-linecap: square"/>
   </g>
   <g id="line2d_34">
    <path d="M 208.141912 23.967429 
L 209.101768 23.967429 
" clip-path="url(#p1678f5bee4)" style="fill: none; stroke: #424242; stroke-width: 2.7; stroke-linecap: square"/>
   </g>
   <g id="line2d_35">
    <path d="M 148.237143 58.105206 
L 148.413497 58.105206 
" clip-path="url(#p1678f5bee4)" style="fill: none; stroke: #424242; stroke-width: 2.7; stroke-linecap: square"/>
   </g>
   <g id="line2d_36">
    <path d="M 474.301765 92.242984 
L 480.860029 92.242984 
" clip-path="url(#p1678f5bee4)" style="fill: none; stroke: #424242; stroke-width: 2.7; stroke-linecap: square"/>
   </g>
   <g id="line2d_37">
    <path d="M 141.312084 126.380762 
L 141.385648 126.380762 
" clip-path="url(#p1678f5bee4)" style="fill: none; stroke: #424242; stroke-width: 2.7; stroke-linecap: square"/>
   </g>
   <g id="line2d_38">
    <path d="M 140.765952 160.51854 
L 140.791005 160.51854 
" clip-path="url(#p1678f5bee4)" style="fill: none; stroke: #424242; stroke-width: 2.7; stroke-linecap: square"/>
   </g>
   <g id="line2d_39">
    <path d="M 160.90308 194.656317 
L 161.021516 194.656317 
" clip-path="url(#p1678f5bee4)" style="fill: none; stroke: #424242; stroke-width: 2.7; stroke-linecap: square"/>
   </g>
   <g id="line2d_40">
    <path d="M 157.848353 228.794095 
L 157.98163 228.794095 
" clip-path="url(#p1678f5bee4)" style="fill: none; stroke: #424242; stroke-width: 2.7; stroke-linecap: square"/>
   </g>
   <g id="line2d_41">
    <path d="M 149.531967 262.931873 
L 149.587647 262.931873 
" clip-path="url(#p1678f5bee4)" style="fill: none; stroke: #424242; stroke-width: 2.7; stroke-linecap: square"/>
   </g>
   <g id="line2d_42">
    <path d="M 191.328011 297.069651 
L 191.78282 297.069651 
" clip-path="url(#p1678f5bee4)" style="fill: none; stroke: #424242; stroke-width: 2.7; stroke-linecap: square"/>
   </g>
   <g id="line2d_43">
    <path d="M 171.02208 27.868889 
L 171.023413 27.868889 
" clip-path="url(#p1678f5bee4)" style="fill: none; stroke: #424242; stroke-width: 2.7; stroke-linecap: square"/>
   </g>
   <g id="line2d_44">
    <path d="M 142.177707 62.006667 
L 142.178112 62.006667 
" clip-path="url(#p1678f5bee4)" style="fill: none; stroke: #424242; stroke-width: 2.7; stroke-linecap: square"/>
   </g>
   <g id="line2d_45">
    <path d="M 213.667197 96.144444 
L 213.74812 96.144444 
" clip-path="url(#p1678f5bee4)" style="fill: none; stroke: #424242; stroke-width: 2.7; stroke-linecap: square"/>
   </g>
   <g id="line2d_46">
    <path d="M 139.765673 130.282222 
L 139.765712 130.282222 
" clip-path="url(#p1678f5bee4)" style="fill: none; stroke: #424242; stroke-width: 2.7; stroke-linecap: square"/>
   </g>
   <g id="line2d_47">
    <path d="M 139.73136 164.42 
L 139.731402 164.42 
" clip-path="url(#p1678f5bee4)" style="fill: none; stroke: #424242; stroke-width: 2.7; stroke-linecap: square"/>
   </g>
   <g id="line2d_48">
    <path d="M 145.14949 198.557778 
L 145.151758 198.557778 
" clip-path="url(#p1678f5bee4)" style="fill: none; stroke: #424242; stroke-width: 2.7; stroke-linecap: square"/>
   </g>
   <g id="line2d_49">
    <path d="M 146.257038 232.695556 
L 146.260167 232.695556 
" clip-path="url(#p1678f5bee4)" style="fill: none; stroke: #424242; stroke-width: 2.7; stroke-linecap: square"/>
   </g>
   <g id="line2d_50">
    <path d="M 139.819596 266.833333 
L 139.819713 266.833333 
" clip-path="url(#p1678f5bee4)" style="fill: none; stroke: #424242; stroke-width: 2.7; stroke-linecap: square"/>
   </g>
   <g id="line2d_51">
    <path d="M 146.558123 300.971111 
L 146.560096 300.971111 
" clip-path="url(#p1678f5bee4)" style="fill: none; stroke: #424242; stroke-width: 2.7; stroke-linecap: square"/>
   </g>
   <g id="line2d_52">
    <path d="M 224.353476 31.770349 
L 225.617391 31.770349 
" clip-path="url(#p1678f5bee4)" style="fill: none; stroke: #424242; stroke-width: 2.7; stroke-linecap: square"/>
   </g>
   <g id="line2d_53">
    <path d="M 159.829599 65.908127 
L 160.701982 65.908127 
" clip-path="url(#p1678f5bee4)" style="fill: none; stroke: #424242; stroke-width: 2.7; stroke-linecap: square"/>
   </g>
   <g id="line2d_54">
    <path d="M 506.121939 100.045905 
L 513.86121 100.045905 
" clip-path="url(#p1678f5bee4)" style="fill: none; stroke: #424242; stroke-width: 2.7; stroke-linecap: square"/>
   </g>
   <g id="line2d_55">
    <path d="M 141.722914 134.183683 
L 141.810583 134.183683 
" clip-path="url(#p1678f5bee4)" style="fill: none; stroke: #424242; stroke-width: 2.7; stroke-linecap: square"/>
   </g>
   <g id="line2d_56">
    <path d="M 142.867759 168.32146 
L 142.915365 168.32146 
" clip-path="url(#p1678f5bee4)" style="fill: none; stroke: #424242; stroke-width: 2.7; stroke-linecap: square"/>
   </g>
   <g id="line2d_57">
    <path d="M 164.862762 202.459238 
L 165.067576 202.459238 
" clip-path="url(#p1678f5bee4)" style="fill: none; stroke: #424242; stroke-width: 2.7; stroke-linecap: square"/>
   </g>
   <g id="line2d_58">
    <path d="M 167.753875 236.597016 
L 168.229921 236.597016 
" clip-path="url(#p1678f5bee4)" style="fill: none; stroke: #424242; stroke-width: 2.7; stroke-linecap: square"/>
   </g>
   <g id="line2d_59">
    <path d="M 157.684072 270.734794 
L 157.950497 270.734794 
" clip-path="url(#p1678f5bee4)" style="fill: none; stroke: #424242; stroke-width: 2.7; stroke-linecap: square"/>
   </g>
   <g id="line2d_60">
    <path d="M 230.659263 304.872571 
L 232.024125 304.872571 
" clip-path="url(#p1678f5bee4)" style="fill: none; stroke: #424242; stroke-width: 2.7; stroke-linecap: square"/>
   </g>
   <g id="line2d_61">
    <path d="M 209.788682 35.67181 
L 211.350851 35.67181 
" clip-path="url(#p1678f5bee4)" style="fill: none; stroke: #424242; stroke-width: 2.7; stroke-linecap: square"/>
   </g>
   <g id="line2d_62">
    <path d="M 151.774923 69.809587 
L 152.175526 69.809587 
" clip-path="url(#p1678f5bee4)" style="fill: none; stroke: #424242; stroke-width: 2.7; stroke-linecap: square"/>
   </g>
   <g id="line2d_63">
    <path d="M 482.247596 103.947365 
L 488.919525 103.947365 
" clip-path="url(#p1678f5bee4)" style="fill: none; stroke: #424242; stroke-width: 2.7; stroke-linecap: square"/>
   </g>
   <g id="line2d_64">
    <path d="M 141.918739 138.085143 
L 142.031625 138.085143 
" clip-path="url(#p1678f5bee4)" style="fill: none; stroke: #424242; stroke-width: 2.7; stroke-linecap: square"/>
   </g>
   <g id="line2d_65">
    <path d="M 142.888611 172.222921 
L 142.936441 172.222921 
" clip-path="url(#p1678f5bee4)" style="fill: none; stroke: #424242; stroke-width: 2.7; stroke-linecap: square"/>
   </g>
   <g id="line2d_66">
    <path d="M 161.328894 206.360698 
L 161.450501 206.360698 
" clip-path="url(#p1678f5bee4)" style="fill: none; stroke: #424242; stroke-width: 2.7; stroke-linecap: square"/>
   </g>
   <g id="line2d_67">
    <path d="M 161.147115 240.498476 
L 161.376516 240.498476 
" clip-path="url(#p1678f5bee4)" style="fill: none; stroke: #424242; stroke-width: 2.7; stroke-linecap: square"/>
   </g>
   <g id="line2d_68">
    <path d="M 150.350968 274.636254 
L 150.418737 274.636254 
" clip-path="url(#p1678f5bee4)" style="fill: none; stroke: #424242; stroke-width: 2.7; stroke-linecap: square"/>
   </g>
   <g id="line2d_69">
    <path d="M 203.996069 308.774032 
L 204.627364 308.774032 
" clip-path="url(#p1678f5bee4)" style="fill: none; stroke: #424242; stroke-width: 2.7; stroke-linecap: square"/>
   </g>
   <g id="line2d_70">
    <path d="M 207.580897 39.57327 
L 209.011119 39.57327 
" clip-path="url(#p1678f5bee4)" style="fill: none; stroke: #424242; stroke-width: 2.7; stroke-linecap: square"/>
   </g>
   <g id="line2d_71">
    <path d="M 151.234404 73.711048 
L 151.721719 73.711048 
" clip-path="url(#p1678f5bee4)" style="fill: none; stroke: #424242; stroke-width: 2.7; stroke-linecap: square"/>
   </g>
   <g id="line2d_72">
    <path d="M 478.704402 107.848825 
L 485.596437 107.848825 
" clip-path="url(#p1678f5bee4)" style="fill: none; stroke: #424242; stroke-width: 2.7; stroke-linecap: square"/>
   </g>
   <g id="line2d_73">
    <path d="M 141.920635 141.986603 
L 142.032827 141.986603 
" clip-path="url(#p1678f5bee4)" style="fill: none; stroke: #424242; stroke-width: 2.7; stroke-linecap: square"/>
   </g>
   <g id="line2d_74">
    <path d="M 142.888492 176.124381 
L 142.93646 176.124381 
" clip-path="url(#p1678f5bee4)" style="fill: none; stroke: #424242; stroke-width: 2.7; stroke-linecap: square"/>
   </g>
   <g id="line2d_75">
    <path d="M 161.331634 210.262159 
L 161.446995 210.262159 
" clip-path="url(#p1678f5bee4)" style="fill: none; stroke: #424242; stroke-width: 2.7; stroke-linecap: square"/>
   </g>
   <g id="line2d_76">
    <path d="M 159.21787 244.399937 
L 159.475356 244.399937 
" clip-path="url(#p1678f5bee4)" style="fill: none; stroke: #424242; stroke-width: 2.7; stroke-linecap: square"/>
   </g>
   <g id="line2d_77">
    <path d="M 149.53902 278.537714 
L 149.594965 278.537714 
" clip-path="url(#p1678f5bee4)" style="fill: none; stroke: #424242; stroke-width: 2.7; stroke-linecap: square"/>
   </g>
   <g id="line2d_78">
    <path d="M 196.101051 312.675492 
L 196.615489 312.675492 
" clip-path="url(#p1678f5bee4)" style="fill: none; stroke: #424242; stroke-width: 2.7; stroke-linecap: square"/>
   </g>
   <g id="patch_66">
    <path d="M 136.051347 318.04 
L 136.051347 10.8 
" style="fill: none; stroke: #000000; stroke-width: 0.8; stroke-linejoin: miter; stroke-linecap: square"/>
   </g>
   <g id="patch_67">
    <path d="M 136.051347 318.04 
L 532.751703 318.04 
" style="fill: none; stroke: #000000; stroke-width: 0.8; stroke-linejoin: miter; stroke-linecap: square"/>
   </g>
  </g>
  <g id="legend_1">
   <g id="text_17">
    <!-- model -->
    <g transform="translate(599.611563 131.385938)scale(0.1 -0.1)">
     <use xlink:href="#DejaVuSans-6d"/>
     <use xlink:href="#DejaVuSans-6f" x="97.412109"/>
     <use xlink:href="#DejaVuSans-64" x="158.59375"/>
     <use xlink:href="#DejaVuSans-65" x="222.070312"/>
     <use xlink:href="#DejaVuSans-6c" x="283.59375"/>
    </g>
   </g>
   <g id="patch_68">
    <path d="M 538.802188 146.064063 
L 558.802188 146.064063 
L 558.802188 139.064063 
L 538.802188 139.064063 
z
" style="fill: #3274a1"/>
   </g>
   <g id="text_18">
    <!-- MarginalDistribution /e /r -->
    <g transform="translate(566.802188 146.064063)scale(0.1 -0.1)">
     <defs>
      <path id="DejaVuSans-67" d="M 2906 1791 
Q 2906 2416 2648 2759 
Q 2391 3103 1925 3103 
Q 1463 3103 1205 2759 
Q 947 2416 947 1791 
Q 947 1169 1205 825 
Q 1463 481 1925 481 
Q 2391 481 2648 825 
Q 2906 1169 2906 1791 
z
M 3481 434 
Q 3481 -459 3084 -895 
Q 2688 -1331 1869 -1331 
Q 1566 -1331 1297 -1286 
Q 1028 -1241 775 -1147 
L 775 -588 
Q 1028 -725 1275 -790 
Q 1522 -856 1778 -856 
Q 2344 -856 2625 -561 
Q 2906 -266 2906 331 
L 2906 616 
Q 2728 306 2450 153 
Q 2172 0 1784 0 
Q 1141 0 747 490 
Q 353 981 353 1791 
Q 353 2603 747 3093 
Q 1141 3584 1784 3584 
Q 2172 3584 2450 3431 
Q 2728 3278 2906 2969 
L 2906 3500 
L 3481 3500 
L 3481 434 
z
" transform="scale(0.015625)"/>
      <path id="DejaVuSans-6e" d="M 3513 2113 
L 3513 0 
L 2938 0 
L 2938 2094 
Q 2938 2591 2744 2837 
Q 2550 3084 2163 3084 
Q 1697 3084 1428 2787 
Q 1159 2491 1159 1978 
L 1159 0 
L 581 0 
L 581 3500 
L 1159 3500 
L 1159 2956 
Q 1366 3272 1645 3428 
Q 1925 3584 2291 3584 
Q 2894 3584 3203 3211 
Q 3513 2838 3513 2113 
z
" transform="scale(0.015625)"/>
      <path id="DejaVuSans-73" d="M 2834 3397 
L 2834 2853 
Q 2591 2978 2328 3040 
Q 2066 3103 1784 3103 
Q 1356 3103 1142 2972 
Q 928 2841 928 2578 
Q 928 2378 1081 2264 
Q 1234 2150 1697 2047 
L 1894 2003 
Q 2506 1872 2764 1633 
Q 3022 1394 3022 966 
Q 3022 478 2636 193 
Q 2250 -91 1575 -91 
Q 1294 -91 989 -36 
Q 684 19 347 128 
L 347 722 
Q 666 556 975 473 
Q 1284 391 1588 391 
Q 1994 391 2212 530 
Q 2431 669 2431 922 
Q 2431 1156 2273 1281 
Q 2116 1406 1581 1522 
L 1381 1569 
Q 847 1681 609 1914 
Q 372 2147 372 2553 
Q 372 3047 722 3315 
Q 1072 3584 1716 3584 
Q 2034 3584 2315 3537 
Q 2597 3491 2834 3397 
z
" transform="scale(0.015625)"/>
      <path id="DejaVuSans-74" d="M 1172 4494 
L 1172 3500 
L 2356 3500 
L 2356 3053 
L 1172 3053 
L 1172 1153 
Q 1172 725 1289 603 
Q 1406 481 1766 481 
L 2356 481 
L 2356 0 
L 1766 0 
Q 1100 0 847 248 
Q 594 497 594 1153 
L 594 3053 
L 172 3053 
L 172 3500 
L 594 3500 
L 594 4494 
L 1172 4494 
z
" transform="scale(0.015625)"/>
      <path id="DejaVuSans-62" d="M 3116 1747 
Q 3116 2381 2855 2742 
Q 2594 3103 2138 3103 
Q 1681 3103 1420 2742 
Q 1159 2381 1159 1747 
Q 1159 1113 1420 752 
Q 1681 391 2138 391 
Q 2594 391 2855 752 
Q 3116 1113 3116 1747 
z
M 1159 2969 
Q 1341 3281 1617 3432 
Q 1894 3584 2278 3584 
Q 2916 3584 3314 3078 
Q 3713 2572 3713 1747 
Q 3713 922 3314 415 
Q 2916 -91 2278 -91 
Q 1894 -91 1617 61 
Q 1341 213 1159 525 
L 1159 0 
L 581 0 
L 581 4863 
L 1159 4863 
L 1159 2969 
z
" transform="scale(0.015625)"/>
      <path id="DejaVuSans-20" transform="scale(0.015625)"/>
      <path id="DejaVuSans-2f" d="M 1625 4666 
L 2156 4666 
L 531 -594 
L 0 -594 
L 1625 4666 
z
" transform="scale(0.015625)"/>
     </defs>
     <use xlink:href="#DejaVuSans-4d"/>
     <use xlink:href="#DejaVuSans-61" x="86.279297"/>
     <use xlink:href="#DejaVuSans-72" x="147.558594"/>
     <use xlink:href="#DejaVuSans-67" x="186.921875"/>
     <use xlink:href="#DejaVuSans-69" x="250.398438"/>
     <use xlink:href="#DejaVuSans-6e" x="278.181641"/>
     <use xlink:href="#DejaVuSans-61" x="341.560547"/>
     <use xlink:href="#DejaVuSans-6c" x="402.839844"/>
     <use xlink:href="#DejaVuSans-44" x="430.623047"/>
     <use xlink:href="#DejaVuSans-69" x="507.625"/>
     <use xlink:href="#DejaVuSans-73" x="535.408203"/>
     <use xlink:href="#DejaVuSans-74" x="587.507812"/>
     <use xlink:href="#DejaVuSans-72" x="626.716797"/>
     <use xlink:href="#DejaVuSans-69" x="667.830078"/>
     <use xlink:href="#DejaVuSans-62" x="695.613281"/>
     <use xlink:href="#DejaVuSans-75" x="759.089844"/>
     <use xlink:href="#DejaVuSans-74" x="822.46875"/>
     <use xlink:href="#DejaVuSans-69" x="861.677734"/>
     <use xlink:href="#DejaVuSans-6f" x="889.460938"/>
     <use xlink:href="#DejaVuSans-6e" x="950.642578"/>
     <use xlink:href="#DejaVuSans-20" x="1014.021484"/>
     <use xlink:href="#DejaVuSans-2f" x="1045.808594"/>
     <use xlink:href="#DejaVuSans-65" x="1079.5"/>
     <use xlink:href="#DejaVuSans-20" x="1141.023438"/>
     <use xlink:href="#DejaVuSans-2f" x="1172.810547"/>
     <use xlink:href="#DejaVuSans-72" x="1206.501953"/>
    </g>
   </g>
   <g id="patch_69">
    <path d="M 538.802188 160.742188 
L 558.802188 160.742188 
L 558.802188 153.742188 
L 538.802188 153.742188 
z
" style="fill: #e1812c"/>
   </g>
   <g id="text_19">
    <!-- MarginalDistribution /e  -->
    <g transform="translate(566.802188 160.742188)scale(0.1 -0.1)">
     <use xlink:href="#DejaVuSans-4d"/>
     <use xlink:href="#DejaVuSans-61" x="86.279297"/>
     <use xlink:href="#DejaVuSans-72" x="147.558594"/>
     <use xlink:href="#DejaVuSans-67" x="186.921875"/>
     <use xlink:href="#DejaVuSans-69" x="250.398438"/>
     <use xlink:href="#DejaVuSans-6e" x="278.181641"/>
     <use xlink:href="#DejaVuSans-61" x="341.560547"/>
     <use xlink:href="#DejaVuSans-6c" x="402.839844"/>
     <use xlink:href="#DejaVuSans-44" x="430.623047"/>
     <use xlink:href="#DejaVuSans-69" x="507.625"/>
     <use xlink:href="#DejaVuSans-73" x="535.408203"/>
     <use xlink:href="#DejaVuSans-74" x="587.507812"/>
     <use xlink:href="#DejaVuSans-72" x="626.716797"/>
     <use xlink:href="#DejaVuSans-69" x="667.830078"/>
     <use xlink:href="#DejaVuSans-62" x="695.613281"/>
     <use xlink:href="#DejaVuSans-75" x="759.089844"/>
     <use xlink:href="#DejaVuSans-74" x="822.46875"/>
     <use xlink:href="#DejaVuSans-69" x="861.677734"/>
     <use xlink:href="#DejaVuSans-6f" x="889.460938"/>
     <use xlink:href="#DejaVuSans-6e" x="950.642578"/>
     <use xlink:href="#DejaVuSans-20" x="1014.021484"/>
     <use xlink:href="#DejaVuSans-2f" x="1045.808594"/>
     <use xlink:href="#DejaVuSans-65" x="1079.5"/>
     <use xlink:href="#DejaVuSans-20" x="1141.023438"/>
    </g>
   </g>
   <g id="patch_70">
    <path d="M 538.802188 175.420313 
L 558.802188 175.420313 
L 558.802188 168.420313 
L 538.802188 168.420313 
z
" style="fill: #3a923a"/>
   </g>
   <g id="text_20">
    <!-- MarginalDistribution  /r -->
    <g transform="translate(566.802188 175.420313)scale(0.1 -0.1)">
     <use xlink:href="#DejaVuSans-4d"/>
     <use xlink:href="#DejaVuSans-61" x="86.279297"/>
     <use xlink:href="#DejaVuSans-72" x="147.558594"/>
     <use xlink:href="#DejaVuSans-67" x="186.921875"/>
     <use xlink:href="#DejaVuSans-69" x="250.398438"/>
     <use xlink:href="#DejaVuSans-6e" x="278.181641"/>
     <use xlink:href="#DejaVuSans-61" x="341.560547"/>
     <use xlink:href="#DejaVuSans-6c" x="402.839844"/>
     <use xlink:href="#DejaVuSans-44" x="430.623047"/>
     <use xlink:href="#DejaVuSans-69" x="507.625"/>
     <use xlink:href="#DejaVuSans-73" x="535.408203"/>
     <use xlink:href="#DejaVuSans-74" x="587.507812"/>
     <use xlink:href="#DejaVuSans-72" x="626.716797"/>
     <use xlink:href="#DejaVuSans-69" x="667.830078"/>
     <use xlink:href="#DejaVuSans-62" x="695.613281"/>
     <use xlink:href="#DejaVuSans-75" x="759.089844"/>
     <use xlink:href="#DejaVuSans-74" x="822.46875"/>
     <use xlink:href="#DejaVuSans-69" x="861.677734"/>
     <use xlink:href="#DejaVuSans-6f" x="889.460938"/>
     <use xlink:href="#DejaVuSans-6e" x="950.642578"/>
     <use xlink:href="#DejaVuSans-20" x="1014.021484"/>
     <use xlink:href="#DejaVuSans-20" x="1045.808594"/>
     <use xlink:href="#DejaVuSans-2f" x="1077.595703"/>
     <use xlink:href="#DejaVuSans-72" x="1111.287109"/>
    </g>
   </g>
   <g id="patch_71">
    <path d="M 538.802188 190.098438 
L 558.802188 190.098438 
L 558.802188 183.098438 
L 538.802188 183.098438 
z
" style="fill: #c03d3e"/>
   </g>
   <g id="text_21">
    <!-- MarginalDistribution   -->
    <g transform="translate(566.802188 190.098438)scale(0.1 -0.1)">
     <use xlink:href="#DejaVuSans-4d"/>
     <use xlink:href="#DejaVuSans-61" x="86.279297"/>
     <use xlink:href="#DejaVuSans-72" x="147.558594"/>
     <use xlink:href="#DejaVuSans-67" x="186.921875"/>
     <use xlink:href="#DejaVuSans-69" x="250.398438"/>
     <use xlink:href="#DejaVuSans-6e" x="278.181641"/>
     <use xlink:href="#DejaVuSans-61" x="341.560547"/>
     <use xlink:href="#DejaVuSans-6c" x="402.839844"/>
     <use xlink:href="#DejaVuSans-44" x="430.623047"/>
     <use xlink:href="#DejaVuSans-69" x="507.625"/>
     <use xlink:href="#DejaVuSans-73" x="535.408203"/>
     <use xlink:href="#DejaVuSans-74" x="587.507812"/>
     <use xlink:href="#DejaVuSans-72" x="626.716797"/>
     <use xlink:href="#DejaVuSans-69" x="667.830078"/>
     <use xlink:href="#DejaVuSans-62" x="695.613281"/>
     <use xlink:href="#DejaVuSans-75" x="759.089844"/>
     <use xlink:href="#DejaVuSans-74" x="822.46875"/>
     <use xlink:href="#DejaVuSans-69" x="861.677734"/>
     <use xlink:href="#DejaVuSans-6f" x="889.460938"/>
     <use xlink:href="#DejaVuSans-6e" x="950.642578"/>
     <use xlink:href="#DejaVuSans-20" x="1014.021484"/>
     <use xlink:href="#DejaVuSans-20" x="1045.808594"/>
    </g>
   </g>
   <g id="patch_72">
    <path d="M 538.802188 204.776563 
L 558.802188 204.776563 
L 558.802188 197.776563 
L 538.802188 197.776563 
z
" style="fill: #9372b2"/>
   </g>
   <g id="text_22">
    <!-- SoftInverseTriple -->
    <g transform="translate(566.802188 204.776563)scale(0.1 -0.1)">
     <defs>
      <path id="DejaVuSans-66" d="M 2375 4863 
L 2375 4384 
L 1825 4384 
Q 1516 4384 1395 4259 
Q 1275 4134 1275 3809 
L 1275 3500 
L 2222 3500 
L 2222 3053 
L 1275 3053 
L 1275 0 
L 697 0 
L 697 3053 
L 147 3053 
L 147 3500 
L 697 3500 
L 697 3744 
Q 697 4328 969 4595 
Q 1241 4863 1831 4863 
L 2375 4863 
z
" transform="scale(0.015625)"/>
      <path id="DejaVuSans-49" d="M 628 4666 
L 1259 4666 
L 1259 0 
L 628 0 
L 628 4666 
z
" transform="scale(0.015625)"/>
      <path id="DejaVuSans-76" d="M 191 3500 
L 800 3500 
L 1894 563 
L 2988 3500 
L 3597 3500 
L 2284 0 
L 1503 0 
L 191 3500 
z
" transform="scale(0.015625)"/>
     </defs>
     <use xlink:href="#DejaVuSans-53"/>
     <use xlink:href="#DejaVuSans-6f" x="63.476562"/>
     <use xlink:href="#DejaVuSans-66" x="124.658203"/>
     <use xlink:href="#DejaVuSans-74" x="158.113281"/>
     <use xlink:href="#DejaVuSans-49" x="197.322266"/>
     <use xlink:href="#DejaVuSans-6e" x="226.814453"/>
     <use xlink:href="#DejaVuSans-76" x="290.193359"/>
     <use xlink:href="#DejaVuSans-65" x="349.373047"/>
     <use xlink:href="#DejaVuSans-72" x="410.896484"/>
     <use xlink:href="#DejaVuSans-73" x="452.009766"/>
     <use xlink:href="#DejaVuSans-65" x="504.109375"/>
     <use xlink:href="#DejaVuSans-54" x="565.632812"/>
     <use xlink:href="#DejaVuSans-72" x="611.966797"/>
     <use xlink:href="#DejaVuSans-69" x="653.080078"/>
     <use xlink:href="#DejaVuSans-70" x="680.863281"/>
     <use xlink:href="#DejaVuSans-6c" x="744.339844"/>
     <use xlink:href="#DejaVuSans-65" x="772.123047"/>
    </g>
   </g>
   <g id="patch_73">
    <path d="M 538.802188 219.454688 
L 558.802188 219.454688 
L 558.802188 212.454688 
L 538.802188 212.454688 
z
" style="fill: #845b53"/>
   </g>
   <g id="text_23">
    <!-- SoftInverseTriple (0.1) -->
    <g transform="translate(566.802188 219.454688)scale(0.1 -0.1)">
     <defs>
      <path id="DejaVuSans-28" d="M 1984 4856 
Q 1566 4138 1362 3434 
Q 1159 2731 1159 2009 
Q 1159 1288 1364 580 
Q 1569 -128 1984 -844 
L 1484 -844 
Q 1016 -109 783 600 
Q 550 1309 550 2009 
Q 550 2706 781 3412 
Q 1013 4119 1484 4856 
L 1984 4856 
z
" transform="scale(0.015625)"/>
      <path id="DejaVuSans-29" d="M 513 4856 
L 1013 4856 
Q 1481 4119 1714 3412 
Q 1947 2706 1947 2009 
Q 1947 1309 1714 600 
Q 1481 -109 1013 -844 
L 513 -844 
Q 928 -128 1133 580 
Q 1338 1288 1338 2009 
Q 1338 2731 1133 3434 
Q 928 4138 513 4856 
z
" transform="scale(0.015625)"/>
     </defs>
     <use xlink:href="#DejaVuSans-53"/>
     <use xlink:href="#DejaVuSans-6f" x="63.476562"/>
     <use xlink:href="#DejaVuSans-66" x="124.658203"/>
     <use xlink:href="#DejaVuSans-74" x="158.113281"/>
     <use xlink:href="#DejaVuSans-49" x="197.322266"/>
     <use xlink:href="#DejaVuSans-6e" x="226.814453"/>
     <use xlink:href="#DejaVuSans-76" x="290.193359"/>
     <use xlink:href="#DejaVuSans-65" x="349.373047"/>
     <use xlink:href="#DejaVuSans-72" x="410.896484"/>
     <use xlink:href="#DejaVuSans-73" x="452.009766"/>
     <use xlink:href="#DejaVuSans-65" x="504.109375"/>
     <use xlink:href="#DejaVuSans-54" x="565.632812"/>
     <use xlink:href="#DejaVuSans-72" x="611.966797"/>
     <use xlink:href="#DejaVuSans-69" x="653.080078"/>
     <use xlink:href="#DejaVuSans-70" x="680.863281"/>
     <use xlink:href="#DejaVuSans-6c" x="744.339844"/>
     <use xlink:href="#DejaVuSans-65" x="772.123047"/>
     <use xlink:href="#DejaVuSans-20" x="833.646484"/>
     <use xlink:href="#DejaVuSans-28" x="865.433594"/>
     <use xlink:href="#DejaVuSans-30" x="904.447266"/>
     <use xlink:href="#DejaVuSans-2e" x="968.070312"/>
     <use xlink:href="#DejaVuSans-31" x="999.857422"/>
     <use xlink:href="#DejaVuSans-29" x="1063.480469"/>
    </g>
   </g>
   <g id="patch_74">
    <path d="M 538.802188 234.132813 
L 558.802188 234.132813 
L 558.802188 227.132813 
L 538.802188 227.132813 
z
" style="fill: #d684bd"/>
   </g>
   <g id="text_24">
    <!-- SoftInverseTriple (0.3) -->
    <g transform="translate(566.802188 234.132813)scale(0.1 -0.1)">
     <use xlink:href="#DejaVuSans-53"/>
     <use xlink:href="#DejaVuSans-6f" x="63.476562"/>
     <use xlink:href="#DejaVuSans-66" x="124.658203"/>
     <use xlink:href="#DejaVuSans-74" x="158.113281"/>
     <use xlink:href="#DejaVuSans-49" x="197.322266"/>
     <use xlink:href="#DejaVuSans-6e" x="226.814453"/>
     <use xlink:href="#DejaVuSans-76" x="290.193359"/>
     <use xlink:href="#DejaVuSans-65" x="349.373047"/>
     <use xlink:href="#DejaVuSans-72" x="410.896484"/>
     <use xlink:href="#DejaVuSans-73" x="452.009766"/>
     <use xlink:href="#DejaVuSans-65" x="504.109375"/>
     <use xlink:href="#DejaVuSans-54" x="565.632812"/>
     <use xlink:href="#DejaVuSans-72" x="611.966797"/>
     <use xlink:href="#DejaVuSans-69" x="653.080078"/>
     <use xlink:href="#DejaVuSans-70" x="680.863281"/>
     <use xlink:href="#DejaVuSans-6c" x="744.339844"/>
     <use xlink:href="#DejaVuSans-65" x="772.123047"/>
     <use xlink:href="#DejaVuSans-20" x="833.646484"/>
     <use xlink:href="#DejaVuSans-28" x="865.433594"/>
     <use xlink:href="#DejaVuSans-30" x="904.447266"/>
     <use xlink:href="#DejaVuSans-2e" x="968.070312"/>
     <use xlink:href="#DejaVuSans-33" x="999.857422"/>
     <use xlink:href="#DejaVuSans-29" x="1063.480469"/>
    </g>
   </g>
  </g>
 </g>
 <defs>
  <clipPath id="p1678f5bee4">
   <rect x="136.051347" y="10.8" width="396.700357" height="307.24"/>
  </clipPath>
 </defs>
</svg>
